<svg version="1.1" id="Layer_1" xmlns="http://www.w3.org/2000/svg" xmlns:xlink="http://www.w3.org/1999/xlink" x="0px" y="0px"
	 width="100%" viewBox="0 0 1024 672" enable-background="new 0 0 1024 672" xml:space="preserve">
<path fill="#000000" opacity="1.000000" stroke="none" 
	d="
M385.179138,366.026917 
	C394.804474,387.425842 383.740814,410.922455 361.629883,417.374146 
	C352.101379,420.154449 342.461151,419.322052 332.851013,419.284698 
	C323.842987,419.249695 315.603302,419.898224 308.306549,426.597290 
	C302.422028,431.999878 293.664429,430.314087 289.296967,424.441071 
	C284.851013,418.462524 286.061737,411.472900 292.530823,405.995087 
	C301.742889,398.194641 312.659576,395.219025 324.457611,394.979156 
	C333.117310,394.803101 341.791473,395.105499 350.441650,394.758240 
	C358.852814,394.420563 364.156219,388.635162 363.698914,381.002167 
	C363.316315,374.617188 359.986603,372.358185 354.283386,374.934448 
	C317.078949,391.740356 280.403656,368.035065 273.237457,334.818939 
	C266.298401,302.655640 290.208374,270.203369 323.090057,267.634277 
	C351.131042,265.443390 376.288605,281.589966 384.085693,307.522217 
	C388.173035,321.116333 387.900665,334.907867 381.299744,347.884277 
	C378.741058,352.914276 377.285919,357.204407 382.498566,361.404968 
	C383.703522,362.375977 384.195587,364.231659 385.179138,366.026917 
M352.339996,346.828186 
	C365.815613,332.907196 363.950409,314.650757 353.516174,302.571259 
	C344.961578,292.667847 330.242065,289.193115 317.481140,294.215424 
	C305.663818,298.866302 296.589264,312.157623 297.562744,324.389679 
	C298.652344,338.080414 305.322845,348.381042 318.173401,353.843964 
	C330.689819,359.164856 341.898376,356.153656 352.339996,346.828186 
z"/>
<path fill="#000000" opacity="1.000000" stroke="none" 
	d="
M664.892456,363.089905 
	C639.420288,334.371429 647.791016,292.909637 677.672852,275.187927 
	C710.175659,255.911850 754.197632,276.370392 761.319214,313.927002 
	C763.139099,323.524811 762.056763,333.185547 762.279236,342.815918 
	C762.455994,350.471222 762.319702,358.133636 762.330017,365.792908 
	C762.343018,375.479187 759.500977,379.803253 751.953796,381.560028 
	C745.110291,383.153015 740.054138,380.093384 735.908997,371.590179 
	C710.279358,386.880585 686.628967,383.982635 664.892456,363.089905 
M677.809021,312.436859 
	C670.269592,332.458618 682.744080,351.283447 699.446594,355.520630 
	C715.963379,359.710632 732.544800,348.808411 736.418335,331.848541 
	C740.306946,314.822083 729.379761,296.841248 712.980591,293.281525 
	C698.190430,290.071106 685.574341,296.747131 677.809021,312.436859 
z"/>
<path fill="#000000" opacity="1.000000" stroke="none" 
	d="
M638.251526,303.131439 
	C627.658386,325.597839 617.170532,347.700562 606.794128,369.855408 
	C603.887878,376.060577 599.775391,380.246399 592.446472,380.354370 
	C585.211304,380.460938 581.382507,376.281281 578.501099,370.249756 
	C565.660339,343.370667 552.682312,316.557068 539.729736,289.731445 
	C535.913635,281.828003 537.668823,274.688599 544.368408,271.221802 
	C551.997864,267.273834 559.449402,269.815521 563.400024,278.131348 
	C572.183716,296.620605 580.762634,315.207184 589.441223,333.746521 
	C590.272644,335.522644 591.217773,337.245544 592.279846,339.325592 
	C594.813599,337.453247 595.379639,334.949097 596.370667,332.789520 
	C604.837830,314.338135 613.192505,295.835052 621.690857,277.398132 
	C624.910950,270.412354 632.324097,267.807556 639.239319,270.954346 
	C645.561646,273.831390 648.226074,280.925018 645.319885,287.838257 
	C643.193298,292.897156 640.718628,297.809692 638.251526,303.131439 
z"/>
<path fill="#000000" opacity="1.000000" stroke="none" 
	d="
M428.524536,318.847595 
	C428.304108,334.736267 428.234100,350.207336 428.043335,365.676849 
	C427.928192,375.011597 423.083771,380.481049 414.940430,380.757324 
	C408.269012,380.983643 402.064606,376.708588 402.067200,370.128662 
	C402.074860,350.721680 399.579468,331.162354 403.625244,311.928741 
	C408.596405,288.295898 430.738220,270.375641 454.913361,269.746490 
	C457.740143,269.672913 460.577301,269.620300 463.398163,269.772064 
	C471.092804,270.186005 476.335052,275.446442 476.099640,282.376678 
	C475.870819,289.113739 470.165985,294.225769 462.728546,294.358368 
	C443.961334,294.692963 433.966797,301.747131 428.524536,318.847595 
z"/>
<path fill="#000000" opacity="1.000000" stroke="none" 
	d="
M486.999573,397.731018 
	C521.810608,396.828033 556.130737,396.428497 590.448120,396.898895 
	C627.583435,397.407898 664.713013,398.407623 701.778198,400.905182 
	C718.549500,402.035278 735.295410,403.544556 752.050781,404.906464 
	C753.708557,405.041229 755.353027,405.343445 757.002258,405.577850 
	C758.646851,405.811676 760.779175,405.863434 760.666992,408.064545 
	C760.535767,410.639465 758.180481,410.228394 756.413879,410.271759 
	C754.749939,410.312592 753.079285,410.264130 751.417175,410.162781 
	C687.192993,406.247681 622.894409,406.126648 558.585632,406.175934 
	C528.253906,406.199188 497.954559,407.240143 467.668640,408.518829 
	C446.559967,409.410065 425.446350,410.687225 404.430145,413.085754 
	C401.869141,413.377991 398.902252,413.706329 399.208771,409.866791 
	C399.456299,406.765839 396.825287,402.213531 403.168762,401.577728 
	C421.087738,399.781830 439.092041,399.836639 457.044037,398.795685 
	C466.850128,398.227020 476.680542,398.076996 486.999573,397.731018 
z"/>
<path fill="#000000" opacity="1.000000" stroke="none" 
	d="
M492.815155,291.025726 
	C493.024445,286.560364 492.414978,282.566650 493.537323,278.618866 
	C495.509918,271.680267 500.251312,268.806458 508.590057,269.723480 
	C514.548950,270.378754 519.193848,275.325836 519.246582,281.589996 
	C519.368408,296.071869 519.293823,310.555359 519.296753,325.038208 
	C519.299744,339.354584 519.407593,353.672028 519.266602,367.987000 
	C519.158997,378.918549 508.623352,384.997711 499.161530,379.688904 
	C493.578857,376.556610 492.782074,371.053192 492.771545,365.432404 
	C492.725433,340.795197 492.790070,316.157806 492.815155,291.025726 
z"/>
<path fill="#000000" opacity="1.000000" stroke="none" 
	d="
M532.574219,240.186401 
	C533.186768,241.344376 533.653198,242.208572 534.456482,243.697006 
	C535.228333,240.651123 535.902222,238.195953 536.470459,235.716599 
	C540.170105,219.573074 550.045959,209.018051 565.550964,203.575562 
	C569.005432,202.362991 572.496643,201.248627 575.999451,200.182587 
	C578.794250,199.331985 580.271667,200.523148 580.013855,203.387238 
	C578.553650,219.610870 573.074829,233.555405 557.727844,241.682816 
	C554.218811,243.541153 550.553955,245.133606 545.820129,244.155716 
	C546.706726,236.570465 550.570923,230.440094 553.933044,224.097198 
	C544.860962,231.175980 541.211365,240.919708 540.334351,251.976410 
	C540.124329,254.624542 540.280762,257.304413 540.321045,259.968903 
	C540.355957,262.275696 539.509338,263.832825 537.046570,264.172363 
	C534.264404,264.555969 533.651367,262.648468 533.307617,260.563843 
	C531.914124,252.112793 528.856201,244.538910 522.043091,238.916000 
	C521.551331,238.510193 521.009460,238.165146 519.660522,237.194016 
	C521.870667,242.218170 525.547119,245.429413 526.420898,250.007965 
	C512.998962,255.517380 494.034668,239.004425 491.163696,219.548203 
	C501.996185,213.717316 523.797546,224.465942 532.574219,240.186401 
z"/>
</svg>